<?xml version="1.0" encoding="utf-8"?>
<!-- Generator: Adobe Illustrator 16.0.0, SVG Export Plug-In . SVG Version: 6.00 Build 0)  -->
<!DOCTYPE svg PUBLIC "-//W3C//DTD SVG 1.1//EN" "http://www.w3.org/Graphics/SVG/1.1/DTD/svg11.dtd">
<svg version="1.1" id="Layer_1" xmlns="http://www.w3.org/2000/svg" xmlns:xlink="http://www.w3.org/1999/xlink" x="0px" y="0px"
	 width="792px" height="612px" viewBox="0 0 792 612" enable-background="new 0 0 792 612" xml:space="preserve">
<path fill="#2C4980" d="M256.639,198.465h20.92c13.502,0,22.633,0.621,27.395,1.858c4.758,1.242,8.377,3.279,10.858,6.11
	c2.478,2.833,4.027,5.989,4.648,9.463c0.619,3.476,0.93,10.305,0.93,20.488v37.654c0,9.65-0.454,16.104-1.361,19.358
	c-0.907,3.252-2.491,5.799-4.749,7.637c-2.257,1.837-5.046,3.12-8.367,3.853c-3.321,0.729-8.323,1.094-15.009,1.094h-35.264V198.465
	z M284.597,216.86v70.726c4.029,0,6.51-0.807,7.439-2.426c0.929-1.614,1.395-6.009,1.395-13.182v-41.77
	c0-4.871-0.155-7.991-0.466-9.364c-0.31-1.373-1.019-2.381-2.125-3.022C289.734,217.183,287.653,216.86,284.597,216.86z"/>
<path fill="#2C4980" d="M331.814,198.465h19.79c13.192,0,22.125,0.509,26.797,1.528c4.671,1.019,8.478,3.62,11.423,7.802
	c2.942,4.184,4.417,10.858,4.417,20.022c0,8.367-1.043,13.99-3.122,16.869c-2.081,2.877-6.176,4.604-12.286,5.178
	c5.535,1.373,9.252,3.211,11.158,5.514c1.902,2.302,3.086,4.415,3.552,6.341c0.465,1.926,0.698,7.229,0.698,15.906v28.355h-25.967
	v-35.728c0-5.755-0.455-9.318-1.362-10.691c-0.907-1.372-3.285-2.059-7.138-2.059v48.478h-27.959V198.465z M359.773,216.86v23.907
	c3.144,0,5.347-0.432,6.608-1.295s1.892-3.663,1.892-8.399v-5.912c0-3.408-0.61-5.645-1.826-6.707
	C365.228,217.392,363.005,216.86,359.773,216.86z"/>
<path fill="#2C4980" d="M472.202,198.465v86.001h17.003v21.515h-44.959V198.465H472.202z"/>
<path fill="#2C4980" d="M523.936,198.465v86.001h17.002v21.515h-44.958V198.465H523.936z"/>
<text transform="matrix(1 0 0 1 251.0615 360.3418)" fill="#2C4980" font-family="'GillSans-Light'" font-size="56.6245" letter-spacing="2">FOR FITBIT</text>
<g>
	<polygon fill="#2C4980" points="433.022,236.637 433.022,222.939 405.064,234.989 405.064,248.689 	"/>
	<polygon fill="#2C4980" points="433.022,203.818 433.022,198.465 405.064,198.465 405.064,215.869 	"/>
	<polygon fill="#2C4980" points="405.064,267.81 405.064,305.981 433.022,305.981 433.022,255.757 	"/>
</g>
</svg>
