<svg id="Layer_1" data-name="Layer 1" xmlns="http://www.w3.org/2000/svg" viewBox="0 0 134.86 185.22"><defs><style>.cls-1{fill:#2c4980;}.cls-2{fill:#5c81bc;}</style></defs><title>DRILL_Logo_SVG</title><path class="cls-1" d="M370.86,364.74l-33-57.43-66.23-.14L238.4,364.45l31.79,55.33a8.46,8.46,0,0,0-1,4c.05,7.3,10.2,13.42,24.24,15.53-7.92,2-13.31,5.89-13.28,10.35,0,5.15,7.28,9.45,17.23,10.87-5.2,1.31-8.75,3.88-8.73,6.82s3.36,5.28,8.27,6.56c7.76,4.72,10.64,16.77,10.64,16.77L305,472.68h0l-.06-8.12c0-2,8.84-.06,11.5,1.77,1.84,1.26-.16,4.78-1.58,6.84,3.89-1.42,6.4-3.64,6.39-6.11,0-4.22-7.36-7.57-16.35-7.5h0l-.11-14.1c0-3.08,13.39-.1,17.42,2.68,2.78,1.91-.25,7.24-2.4,10.36,5.9-2.15,9.7-5.51,9.67-9.26-.05-6.38-11.13-11.46-24.75-11.35L304.62,422l0-2.86v-1.33c0-2.69,7.05-2.17,13.91-.46,4.46,1.12,8.84,2.73,11.12,4.3a4.49,4.49,0,0,1,.46.41c3.12,3-1,10.19-3.91,14.48,8.47-3.09,13.93-7.92,13.89-13.3a8.33,8.33,0,0,0-.95-3.74Zm-39.19,47.17c-.2.12-.42.23-.63.34-6.51-3.37-16-5.46-26.53-5.37-10.31.07-19.56,2.2-26,5.54a54.5,54.5,0,1,1,53.17-.51Z" transform="translate(-238.4 -305.41)"/><rect class="cls-1" x="288.26" y="358.53" width="37.4" height="9.21" transform="translate(-405.28 18.03) rotate(-45)"/><rect class="cls-1" x="320.36" y="323.3" width="7.97" height="44.92" transform="translate(-387.89 25.15) rotate(-44.99)"/><rect class="cls-1" x="327.45" y="320.71" width="7.97" height="35.94" transform="translate(-380.81 28.2) rotate(-45.01)"/><rect class="cls-1" x="285.48" y="358.18" width="7.97" height="44.92" transform="translate(-422.77 10.74) rotate(-45)"/><rect class="cls-1" x="278.39" y="369.76" width="7.97" height="35.93" transform="translate(-429.86 7.84) rotate(-45)"/><rect class="cls-2" x="288.52" y="355.27" width="37.4" height="9.21" transform="translate(-402.89 17.25) rotate(-45)"/><rect class="cls-2" x="320.62" y="320.04" width="7.97" height="44.92" transform="translate(-385.51 24.38) rotate(-44.99)"/><rect class="cls-2" x="327.71" y="317.45" width="7.97" height="35.94" transform="translate(-378.43 27.43) rotate(-45.01)"/><rect class="cls-2" x="285.74" y="354.92" width="7.97" height="44.92" transform="translate(-420.39 9.97) rotate(-45)"/><rect class="cls-2" x="278.65" y="366.5" width="7.97" height="35.93" transform="translate(-427.48 7.07) rotate(-45)"/><path class="cls-2" d="M373.27,363l-33-57.42-66.23-.15L240.81,362.7,272.59,418a8.51,8.51,0,0,0-1,3.94c.06,7.31,10.21,13.43,24.24,15.53-7.91,2-13.31,5.89-13.27,10.36,0,5.14,7.27,9.45,17.22,10.86-5.2,1.31-8.74,3.89-8.72,6.83s3.35,5.28,8.27,6.55c7.76,4.73,8.23,18.53,8.23,18.53l-.15-19.71h0l-.06-8.11c0-2,8.85-.07,11.51,1.76,1.83,1.27-.17,4.79-1.59,6.85,3.9-1.42,6.41-3.64,6.39-6.12,0-4.21-7.35-7.57-16.35-7.5h0l-.11-14.09c0-3.09,13.4-.11,17.42,2.67,2.78,1.91-.25,7.24-2.4,10.36,5.9-2.15,9.7-5.51,9.67-9.26,0-6.37-11.12-11.46-24.74-11.35L307,420.2l0-2.87V416c0-2.68,7.05-2.16,13.92-.45,4.46,1.11,8.83,2.73,11.11,4.3a3.67,3.67,0,0,1,.47.4c3.12,3-1,10.2-3.92,14.49,8.48-3.1,13.94-7.92,13.89-13.31a8.25,8.25,0,0,0-.94-3.73Zm-39.19,47.18-.63.34c-6.51-3.38-16-5.46-26.54-5.38-10.3.08-19.56,2.21-26,5.55a54.5,54.5,0,1,1,53.17-.51Z" transform="translate(-238.4 -305.41)"/></svg>