<?xml version="1.0" encoding="UTF-8" standalone="no"?>
<!-- Generator: Adobe Illustrator 16.0.0, SVG Export Plug-In . SVG Version: 6.00 Build 0)  -->

<svg
   xmlns:dc="http://purl.org/dc/elements/1.1/"
   xmlns:cc="http://creativecommons.org/ns#"
   xmlns:rdf="http://www.w3.org/1999/02/22-rdf-syntax-ns#"
   xmlns:svg="http://www.w3.org/2000/svg"
   xmlns="http://www.w3.org/2000/svg"
   xmlns:sodipodi="http://sodipodi.sourceforge.net/DTD/sodipodi-0.dtd"
   xmlns:inkscape="http://www.inkscape.org/namespaces/inkscape"
   version="1.1"
   id="Layer_1"
   x="0px"
   y="0px"
   width="160"
   height="160"
   viewBox="0 0 160 160"
   enable-background="new 0 0 792 612"
   xml:space="preserve"
   sodipodi:docname="drillLogo.svg"
   inkscape:version="0.92.2 5c3e80d, 2017-08-06"><metadata
     id="metadata129"><rdf:RDF><cc:Work
         rdf:about=""><dc:format>image/svg+xml</dc:format><dc:type
           rdf:resource="http://purl.org/dc/dcmitype/StillImage" /><dc:title></dc:title></cc:Work></rdf:RDF></metadata><defs
     id="defs127" /><sodipodi:namedview
     pagecolor="#ffffff"
     bordercolor="#666666"
     borderopacity="1"
     objecttolerance="10"
     gridtolerance="10"
     guidetolerance="10"
     inkscape:pageopacity="0"
     inkscape:pageshadow="2"
     inkscape:window-width="1440"
     inkscape:window-height="798"
     id="namedview125"
     showgrid="false"
     inkscape:zoom="1.7255553"
     inkscape:cx="15.779577"
     inkscape:cy="87.630353"
     inkscape:window-x="0"
     inkscape:window-y="1"
     inkscape:window-maximized="1"
     inkscape:current-layer="Layer_1" /><path
     d="M 133.02805,52.85825 106.12446,6.0277846 52.117523,5.9107204 25.01069,52.623561 50.930763,97.744928 c -0.527589,1.033037 -0.809428,2.109729 -0.801276,3.215552 0.04489,5.95826 8.321886,10.94987 19.770807,12.66421 -6.455558,1.6136 -10.854375,4.80412 -10.825838,8.44534 0.03088,4.19851 5.929728,7.70695 14.044311,8.86052 -4.240433,1.06857 -7.130469,3.16839 -7.112419,5.56754 0.01748,2.3112 2.733975,4.3039 6.742065,5.34449 6.326859,3.85436 8.671268,13.6792 8.671268,13.6792 l -2.082356,-14.63885 c 0,0 -0.0096,-0.002 -0.01221,-0.002 l -0.05063,-6.61918 c -0.01281,-1.66253 7.214903,-0.0553 9.385202,1.43889 1.495386,1.03186 -0.13685,3.90211 -1.295074,5.58442 3.178278,-1.15881 5.226294,-2.97099 5.210566,-4.98986 -0.02741,-3.43393 -5.996113,-6.17141 -13.331553,-6.11549 -5.86e-4,0 -5.86e-4,0 -0.0012,0 l -0.08738,-11.49203 c -0.01868,-2.51735 10.924253,-0.0844 14.20619,2.1802 2.265793,1.56061 -0.205556,5.90294 -1.957752,8.45057 4.811694,-1.75568 7.909021,-4.49548 7.886311,-7.55323 -0.03959,-5.19833 -9.075393,-9.34268 -20.181335,-9.25649 l -0.09899,-12.993234 -0.01748,-2.335663 -0.0084,-1.082521 c -0.01568,-2.19126 5.74979,-1.768499 11.346438,-0.372689 3.638309,0.90725 7.204418,2.223874 9.063159,3.504967 0.145003,0.09952 0.25914,0.216613 0.378508,0.331326 2.545315,2.471934 -0.787868,8.313144 -3.192256,11.810544 6.913271,-2.5226 11.363331,-6.45847 11.330131,-10.85088 -0.009,-1.04934 -0.28009,-2.067215 -0.77098,-3.044345 z m -31.95578,38.468994 c -0.17061,0.09726 -0.34414,0.182266 -0.51477,0.277184 -5.311882,-2.750863 -13.041543,-4.45181 -21.641198,-4.385426 -8.40341,0.06347 -15.951395,1.802271 -21.206799,4.523434 C 50.723447,87.934087 44.671436,82.208169 40.433337,74.793534 28.255353,53.483667 35.657762,26.334905 56.967633,14.155761 78.27809,1.9771907 105.428,9.3801857 117.60657,30.689469 c 12.1774,21.309872 4.775,48.459792 -16.5343,60.637775 z"
     id="path96"
     inkscape:connector-curvature="0"
     style="fill:#2c4980;stroke-width:0.99999994" /><g
     id="g108"
     transform="matrix(0.58231648,0,0,0.58231648,-170.24411,-72.272822)"
     style="stroke-width:1.7172792"><rect
       x="424.871"
       y="186.45799"
       transform="matrix(0.7071,0.7071,-0.7071,0.7071,276.6718,-242.7003)"
       width="12.905"
       height="52.379002"
       id="rect98"
       style="fill:#2c4980;stroke-width:1.7172792" /><rect
       x="450.07999"
       y="156.855"
       transform="matrix(-0.7072,0.707,-0.707,-0.7072,911.0348,-0.6987)"
       width="11.164"
       height="62.904999"
       id="rect100"
       style="fill:#2c4980;stroke-width:1.7172792" /><rect
       x="460.008"
       y="153.22"
       transform="matrix(-0.707,0.7072,-0.7072,-0.707,920.9142,-24.773)"
       width="11.161"
       height="50.325001"
       id="rect102"
       style="fill:#2c4980;stroke-width:1.7172792" /><rect
       x="401.233"
       y="205.701"
       transform="matrix(0.7072,-0.707,0.707,0.7072,-48.551,357.0801)"
       width="11.164"
       height="62.905998"
       id="rect104"
       style="fill:#2c4980;stroke-width:1.7172792" /><rect
       x="391.311"
       y="221.91701"
       transform="matrix(0.707,-0.7072,0.7072,0.707,-58.4547,353.0546)"
       width="11.161"
       height="50.323002"
       id="rect106"
       style="fill:#2c4980;stroke-width:1.7172792" /></g><g
     id="g120"
     transform="matrix(0.58231648,0,0,0.58231648,-170.24411,-72.272822)"
     style="stroke-width:1.7172792"><rect
       x="425.23599"
       y="181.89301"
       transform="matrix(0.7071,0.7071,-0.7071,0.7071,273.551,-244.2954)"
       width="12.905"
       height="52.379002"
       id="rect110"
       style="fill:#5c81bc;stroke-width:1.7172792" /><rect
       x="450.44501"
       y="152.28999"
       transform="matrix(-0.7072,0.707,-0.707,-0.7072,908.4418,-8.7217)"
       width="11.164"
       height="62.904999"
       id="rect112"
       style="fill:#5c81bc;stroke-width:1.7172792" /><rect
       x="460.37299"
       y="148.655"
       transform="matrix(-0.707,0.7072,-0.7072,-0.707,918.3212,-32.7952)"
       width="11.161"
       height="50.325001"
       id="rect114"
       style="fill:#5c81bc;stroke-width:1.7172792" /><rect
       x="401.59799"
       y="201.136"
       transform="matrix(0.7071,-0.7071,0.7071,0.7071,-45.209,356.0293)"
       width="11.163"
       height="62.905998"
       id="rect116"
       style="fill:#5c81bc;stroke-width:1.7172792" /><rect
       x="391.67599"
       y="217.353"
       transform="matrix(0.7071,-0.7071,0.7071,0.7071,-55.1263,351.9476)"
       width="11.162"
       height="50.323002"
       id="rect118"
       style="fill:#5c81bc;stroke-width:1.7172792" /></g><path
     d="M 134.98931,51.425178 108.0857,4.5952863 54.078758,4.4782232 26.973099,51.191638 52.892584,96.312428 c -0.527002,1.033034 -0.809426,2.109737 -0.801276,3.215547 0.04489,5.957675 8.322473,10.949885 19.77082,12.664215 -6.45557,1.61302 -10.854386,4.80411 -10.825851,8.44534 0.03148,4.19792 5.929729,7.70695 14.044886,8.85995 -4.241008,1.06913 -7.131044,3.16896 -7.112994,5.56811 0.01748,2.31121 2.733975,4.30331 6.742065,5.3445 6.326872,3.85435 6.709447,15.11169 6.709447,15.11169 L 81.29856,139.44984 c 0,0 -0.0096,-0.002 -0.01221,-0.002 l -0.05003,-6.61918 c -0.0134,-1.66251 7.214318,-0.0547 9.384604,1.43949 1.495386,1.03186 -0.136263,3.9021 -1.295074,5.58383 3.178291,-1.15822 5.226294,-2.97041 5.210578,-4.98928 -0.02681,-3.43393 -5.996113,-6.1714 -13.331552,-6.11549 -5.87e-4,0 -5.87e-4,0 -0.0012,0 l -0.08738,-11.49203 c -0.01927,-2.51735 10.923666,-0.0849 14.206189,2.1802 2.2658,1.56002 -0.205556,5.90294 -1.957752,8.45057 4.811689,-1.75568 7.909617,-4.49606 7.886317,-7.55322 -0.0396,-5.19892 -9.075399,-9.34269 -20.181341,-9.25649 l -0.09899,-12.993237 -0.01688,-2.335671 -0.0096,-1.08194 c -0.01568,-2.191839 5.7498,-1.769076 11.346438,-0.372682 3.638324,0.907249 7.204411,2.224449 9.063173,3.504964 0.145,0.09952 0.25971,0.216624 0.37909,0.331337 2.54472,2.471919 -0.78787,8.313149 -3.192835,11.810529 6.913255,-2.52259 11.363905,-6.45847 11.330125,-10.851452 -0.009,-1.04934 -0.28009,-2.067223 -0.77098,-3.044354 z m -31.95579,38.469569 c -0.17061,0.09725 -0.34415,0.182264 -0.51476,0.277182 -5.311311,-2.750281 -13.041568,-4.451808 -21.64121,-4.385425 -8.403411,0.06405 -15.951396,1.802269 -21.2068,4.523435 C 52.684695,86.501589 46.632683,80.775671 42.394584,73.361036 30.2166,52.05117 37.618423,24.902407 58.92888,12.723839 80.239326,0.54469235 107.38925,7.9476874 119.56781,29.256972 c 12.17799,21.309871 4.775,48.45979 -16.53429,60.637775 z"
     id="path122"
     inkscape:connector-curvature="0"
     style="fill:#5c81bc;stroke-width:0.99999994" /></svg>