<?xml version="1.0" encoding="utf-8"?>
<!-- Generator: Adobe Illustrator 16.0.0, SVG Export Plug-In . SVG Version: 6.00 Build 0)  -->
<!DOCTYPE svg PUBLIC "-//W3C//DTD SVG 1.1//EN" "http://www.w3.org/Graphics/SVG/1.1/DTD/svg11.dtd">
<svg version="1.1" id="Layer_1" xmlns="http://www.w3.org/2000/svg" xmlns:xlink="http://www.w3.org/1999/xlink" x="0px" y="0px"
	 width="792px" height="612px" viewBox="0 0 792 612" enable-background="new 0 0 792 612" xml:space="preserve">
<circle stroke="#FFFFFF" stroke-miterlimit="10" cx="163.427" cy="170.625" r="37.702"/>
<g>
	<g>
		
			<rect x="257.177" y="314.474" transform="matrix(0.6521 0.7581 -0.7581 0.6521 339.8631 -83.003)" stroke="#FFFFFF" stroke-miterlimit="10" width="6.394" height="28.699"/>
		<g>
			
				<rect x="241.438" y="326.222" transform="matrix(0.7583 -0.652 0.652 0.7583 -163.5501 242.5442)" stroke="#FFFFFF" stroke-miterlimit="10" width="7.681" height="31.172"/>
			
				<rect x="236.524" y="334.488" transform="matrix(0.7581 -0.6522 0.6522 0.7581 -168.3824 239.9892)" stroke="#FFFFFF" stroke-miterlimit="10" width="5.532" height="24.938"/>
		</g>
		<g>
			
				<rect x="271.63" y="300.254" transform="matrix(-0.758 0.6522 -0.6522 -0.758 690.2842 375.5809)" stroke="#FFFFFF" stroke-miterlimit="10" width="7.681" height="31.172"/>
			
				<rect x="278.694" y="298.223" transform="matrix(-0.7582 0.6521 -0.6521 -0.7582 697.4408 362.7209)" stroke="#FFFFFF" stroke-miterlimit="10" width="5.531" height="24.936"/>
		</g>
	</g>
	<path stroke="#FFFFFF" stroke-miterlimit="10" d="M327.951,332.821"/>
	<g>
		<path stroke="#FFFFFF" stroke-miterlimit="10" d="M268.953,342.885c-10.219,10.218-14.164,22.843-8.811,28.195
			s17.977,1.408,28.195-8.811l-13.021-13.021c-2.592-2.593,10.051-10.051,15.414-10.699c3.697-0.447,5.846,6.31,6.824,10.549
			c2.67-6.211,2.742-11.875-0.406-15.024C291.795,328.722,279.172,332.666,268.953,342.885z"/>
		<path stroke="#FFFFFF" stroke-miterlimit="10" d="M287.08,361.012c-7.111,7.112-9.857,15.896-6.131,19.623
			c3.725,3.727,12.51,0.98,19.623-6.131l-9.062-9.062c-1.805-1.804,6.996-6.995,10.729-7.446c2.574-0.312,4.068,4.391,4.75,7.341
			c1.859-4.321,1.908-8.265-0.283-10.456C302.979,351.153,294.193,353.899,287.08,361.012z"/>
		<path stroke="#FFFFFF" stroke-miterlimit="10" d="M299.748,373.679c-4.699,4.698-6.514,10.503-4.051,12.964
			c2.461,2.463,8.266,0.648,12.963-4.051l-5.986-5.986c-1.191-1.192,4.621-4.621,7.088-4.919c1.699-0.205,2.688,2.9,3.139,4.849
			c1.227-2.854,1.26-5.46-0.188-6.907C310.252,367.167,304.447,368.98,299.748,373.679z"/>
		<path stroke="#FFFFFF" stroke-miterlimit="10" d="M307.273,381.496l11.52,11.52c0,0-9.926-9.477-17.014-6.025
			C294.691,390.439,307.273,381.496,307.273,381.496z"/>
	</g>
</g>
<circle fill="#FFFFFF" stroke="#000000" stroke-miterlimit="10" cx="266.152" cy="177.938" r="31.599"/>
<rect x="264.162" y="166.196" transform="matrix(-0.0141 0.9999 -0.9999 -0.0141 449.0804 -85.9047)" stroke="#FFFFFF" stroke-miterlimit="10" width="5.454" height="24.476"/>
<rect x="279.128" y="165.221" transform="matrix(-0.9999 -0.014 0.014 -0.9999 562.2772 360.9674)" stroke="#FFFFFF" stroke-miterlimit="10" width="6.55" height="26.585"/>
<rect x="285.678" y="167.959" transform="matrix(-0.9999 -0.0139 0.0139 -0.9999 573.5679 361.1653)" stroke="#FFFFFF" stroke-miterlimit="10" width="4.716" height="21.268"/>
<rect x="248.104" y="164.782" transform="matrix(0.9999 0.0142 -0.0142 0.9999 2.5473 -3.5424)" stroke="#FFFFFF" stroke-miterlimit="10" width="6.55" height="26.585"/>
<rect x="243.387" y="167.361" transform="matrix(0.9999 0.0141 -0.0141 0.9999 2.53 -3.4418)" stroke="#FFFFFF" stroke-miterlimit="10" width="4.717" height="21.268"/>
<polygon stroke="#FFFFFF" stroke-miterlimit="10" points="117.963,370.655 117.841,315.426 165.608,287.705 213.499,315.213 
	213.623,370.441 165.854,398.165 "/>
<circle fill="#FFFFFF" stroke="#000000" stroke-miterlimit="10" cx="165.732" cy="342.935" r="45.448"/>
<rect x="148.261" y="339.24" width="34.943" height="7.785"/>
<rect x="183.204" y="323.959" width="9.352" height="37.951"/>
<rect x="192.556" y="327.754" width="6.733" height="30.36"/>
<g>
	<rect x="138.909" y="323.958" width="9.352" height="37.951"/>
	<rect x="132.175" y="327.754" width="6.734" height="30.36"/>
</g>
<g>
	<path d="M266.358,196.999c-14.451,0-26.167,6.137-26.167,13.707s11.715,13.706,26.167,13.707v-18.414
		c0-3.667,14.213,0,18.464,3.333c2.931,2.298-0.327,8.596-2.633,12.285c6.279-2.503,10.336-6.458,10.336-10.911
		C292.525,203.136,280.809,196.999,266.358,196.999z"/>
	<path d="M266.358,222.634c-10.059,0-18.212,4.271-18.212,9.541c0,5.269,8.153,9.539,18.212,9.54v-12.816
		c0-2.552,9.893,0,12.852,2.32c2.04,1.6-0.228,5.982-1.832,8.55c4.37-1.742,7.193-4.494,7.193-7.594
		C284.571,226.905,276.417,222.634,266.358,222.634z"/>
	<path d="M266.358,240.549c-6.645,0-12.032,2.821-12.032,6.303c0,3.48,5.387,6.302,12.032,6.302v-8.467c0-1.686,6.535,0,8.49,1.533
		c1.347,1.057-0.15,3.953-1.211,5.648c2.887-1.15,4.753-2.969,4.753-5.017C278.39,243.37,273.003,240.549,266.358,240.549z"/>
	<path d="M266.152,251.397v16.291c0,0-0.318-13.719-7.77-16.291S266.152,251.397,266.152,251.397z"/>
</g>
<g>
	<rect x="149.804" y="167.745" fill="#FFFFFF" stroke="#000000" stroke-miterlimit="10" width="27.245" height="6.07"/>
	<rect x="177.049" y="155.83" fill="#FFFFFF" stroke="#000000" stroke-miterlimit="10" width="7.292" height="29.592"/>
	<rect x="184.341" y="158.789" fill="#FFFFFF" stroke="#000000" stroke-miterlimit="10" width="5.25" height="23.673"/>
	<rect x="189.591" y="161.157" fill="#FFFFFF" stroke="#000000" stroke-miterlimit="10" width="3.646" height="18.938"/>
	<rect x="142.512" y="155.829" fill="#FFFFFF" stroke="#000000" stroke-miterlimit="10" width="7.292" height="29.592"/>
	<rect x="137.261" y="158.788" fill="#FFFFFF" stroke="#000000" stroke-miterlimit="10" width="5.25" height="23.673"/>
	<rect x="133.615" y="161.155" fill="#FFFFFF" stroke="#000000" stroke-miterlimit="10" width="3.646" height="18.938"/>
</g>
<rect x="143.689" y="202.968" stroke="#FFFFFF" stroke-miterlimit="10" width="39.474" height="11.492"/>
<polygon stroke="#FFFFFF" stroke-miterlimit="10" points="193.008,248.861 183.164,248.861 182.398,248.861 143.689,248.861 
	143.689,260.353 163.378,278.347 183.164,260.353 183.164,252.234 "/>
<polygon stroke="#FFFFFF" stroke-miterlimit="10" points="193.008,216.412 183.164,216.412 182.398,216.412 143.689,216.412 
	143.689,226.827 133.845,230.2 143.689,230.2 144.455,230.2 183.164,230.2 183.164,219.786 "/>
<polygon stroke="#FFFFFF" stroke-miterlimit="10" points="193.008,232.536 183.164,232.536 182.398,232.536 143.689,232.536 
	143.689,242.95 133.845,246.324 143.689,246.324 144.455,246.324 183.164,246.324 183.164,235.91 "/>
<path fill="#2C4980" d="M520.803,214.885l-46.201-80.421l-92.745-0.201l-46.55,80.219l44.512,77.486
	c-0.906,1.774-1.39,3.623-1.376,5.522c0.077,10.232,14.291,18.804,33.952,21.748c-11.086,2.771-18.64,8.25-18.591,14.503
	c0.053,7.21,10.183,13.235,24.118,15.216c-7.282,1.835-12.245,5.441-12.214,9.561c0.03,3.969,4.695,7.391,11.578,9.178
	c10.865,6.619,14.891,23.491,14.891,23.491l-3.576-25.139c0,0-0.017-0.003-0.021-0.003l-0.087-11.367
	c-0.022-2.855,12.39-0.095,16.117,2.471c2.568,1.772-0.235,6.701-2.224,9.59c5.458-1.99,8.975-5.102,8.948-8.569
	c-0.047-5.897-10.297-10.598-22.894-10.502c-0.001,0-0.001,0-0.003,0l-0.15-19.735c-0.032-4.323,18.76-0.145,24.396,3.744
	c3.891,2.68-0.353,10.137-3.362,14.512c8.263-3.015,13.582-7.72,13.543-12.971c-0.068-8.927-15.585-16.044-34.657-15.896
	l-0.17-22.313l-0.03-4.011l-0.015-1.859c-0.027-3.763,9.874-3.037,19.485-0.64c6.248,1.558,12.372,3.819,15.564,6.019
	c0.249,0.171,0.445,0.372,0.65,0.569c4.371,4.245-1.353,14.276-5.482,20.282c11.872-4.332,19.514-11.091,19.457-18.634
	c-0.014-1.802-0.481-3.55-1.324-5.228L520.803,214.885z M465.926,280.947c-0.293,0.167-0.591,0.313-0.884,0.476
	c-9.122-4.724-22.396-7.645-37.164-7.531c-14.431,0.109-27.393,3.095-36.418,7.768c-11.997-6.54-22.39-16.373-29.668-29.106
	c-20.913-36.595-8.201-83.217,28.394-104.132c36.596-20.914,83.22-8.201,104.134,28.393
	C515.232,213.41,502.52,260.034,465.926,280.947z"/>
<g>
	
		<rect x="424.871" y="186.458" transform="matrix(0.7071 0.7071 -0.7071 0.7071 276.6718 -242.7003)" fill="#2C4980" width="12.905" height="52.379"/>
	
		<rect x="450.08" y="156.855" transform="matrix(-0.7072 0.707 -0.707 -0.7072 911.0348 -0.6987)" fill="#2C4980" width="11.164" height="62.905"/>
	
		<rect x="460.008" y="153.22" transform="matrix(-0.707 0.7072 -0.7072 -0.707 920.9142 -24.773)" fill="#2C4980" width="11.161" height="50.325"/>
	
		<rect x="401.233" y="205.701" transform="matrix(0.7072 -0.707 0.707 0.7072 -48.551 357.0801)" fill="#2C4980" width="11.164" height="62.906"/>
	
		<rect x="391.311" y="221.917" transform="matrix(0.707 -0.7072 0.7072 0.707 -58.4547 353.0546)" fill="#2C4980" width="11.161" height="50.323"/>
</g>
<g>
	
		<rect x="425.236" y="181.893" transform="matrix(0.7071 0.7071 -0.7071 0.7071 273.551 -244.2954)" fill="#5C81BC" width="12.905" height="52.379"/>
	
		<rect x="450.445" y="152.29" transform="matrix(-0.7072 0.707 -0.707 -0.7072 908.4418 -8.7217)" fill="#5C81BC" width="11.164" height="62.905"/>
	
		<rect x="460.373" y="148.655" transform="matrix(-0.707 0.7072 -0.7072 -0.707 918.3212 -32.7952)" fill="#5C81BC" width="11.161" height="50.325"/>
	
		<rect x="401.598" y="201.136" transform="matrix(0.7071 -0.7071 0.7071 0.7071 -45.209 356.0293)" fill="#5C81BC" width="11.163" height="62.906"/>
	
		<rect x="391.676" y="217.353" transform="matrix(0.7071 -0.7071 0.7071 0.7071 -55.1263 351.9476)" fill="#5C81BC" width="11.162" height="50.323"/>
</g>
<path fill="#5C81BC" d="M524.171,212.424l-46.201-80.42l-92.745-0.201l-46.548,80.22l44.511,77.485
	c-0.905,1.774-1.39,3.623-1.376,5.522c0.077,10.231,14.292,18.804,33.952,21.748c-11.086,2.77-18.64,8.25-18.591,14.503
	c0.054,7.209,10.183,13.235,24.119,15.215c-7.283,1.836-12.246,5.442-12.215,9.562c0.03,3.969,4.695,7.39,11.578,9.178
	c10.865,6.619,11.522,25.951,11.522,25.951l-0.208-27.6c0,0-0.017-0.003-0.021-0.003l-0.086-11.367
	c-0.023-2.855,12.389-0.094,16.116,2.472c2.568,1.772-0.234,6.701-2.224,9.589c5.458-1.989,8.975-5.101,8.948-8.568
	c-0.046-5.897-10.297-10.598-22.894-10.502c-0.001,0-0.001,0-0.002,0l-0.15-19.735c-0.033-4.323,18.759-0.146,24.396,3.744
	c3.891,2.679-0.353,10.137-3.362,14.512c8.263-3.015,13.583-7.721,13.543-12.971c-0.068-8.928-15.585-16.044-34.657-15.896
	l-0.17-22.313l-0.029-4.011l-0.016-1.858c-0.027-3.764,9.874-3.038,19.485-0.64c6.248,1.558,12.372,3.82,15.564,6.019
	c0.249,0.171,0.446,0.372,0.651,0.569c4.37,4.245-1.353,14.276-5.483,20.282c11.872-4.332,19.515-11.091,19.457-18.635
	c-0.014-1.802-0.481-3.55-1.324-5.228L524.171,212.424z M469.294,278.487c-0.293,0.167-0.591,0.313-0.884,0.476
	c-9.121-4.723-22.396-7.645-37.164-7.531c-14.431,0.11-27.393,3.095-36.418,7.768c-11.997-6.54-22.39-16.373-29.668-29.106
	c-20.913-36.595-8.202-83.217,28.394-104.131c36.596-20.915,83.22-8.202,104.134,28.392
	C518.601,210.95,505.888,257.574,469.294,278.487z"/>
</svg>
